<svg width="17" height="21" viewBox="0 0 17 21" fill="none" xmlns="http://www.w3.org/2000/svg">
<path d="M11.5 8.60009C11.5 9.40636 11.1839 10.1796 10.6213 10.7497C10.0587 11.3198 9.29565 11.6401 8.5 11.6401C7.70435 11.6401 6.94129 11.3198 6.37868 10.7497C5.81607 10.1796 5.5 9.40636 5.5 8.60009C5.5 7.79382 5.81607 7.02058 6.37868 6.45046C6.94129 5.88035 7.70435 5.56006 8.5 5.56006C9.29565 5.56006 10.0587 5.88035 10.6213 6.45046C11.1839 7.02058 11.5 7.79382 11.5 8.60009Z" stroke="currentColor" stroke-width="1.5" stroke-linecap="round" stroke-linejoin="round"/>
<path d="M16 8.60008C16 15.8374 8.5 20.0002 8.5 20.0002C8.5 20.0002 1 15.8374 1 8.60008C1 6.58441 1.79018 4.6513 3.1967 3.22601C4.60322 1.80072 6.51088 1 8.5 1C10.4891 1 12.3968 1.80072 13.8033 3.22601C15.2098 4.6513 16 6.58441 16 8.60008Z" stroke="currentColor" stroke-width="1.5" stroke-linecap="round" stroke-linejoin="round"/>
</svg>
